<?xml version="1.0" encoding="utf-8"?>
<!-- Generator: Adobe Illustrator 24.0.0, SVG Export Plug-In . SVG Version: 6.00 Build 0)  -->
<svg version="1.1" id="Layer_2" xmlns="http://www.w3.org/2000/svg" xmlns:xlink="http://www.w3.org/1999/xlink" x="0px" y="0px"
	 viewBox="0 0 512 512" enable-background="new 0 0 512 512" xml:space="preserve">
<g>
	<g>
		<g>
			<g>
				<polygon fill="#EDEFF1" points="436,502 76,502 76,10 342,10 436,104 				"/>
			</g>
		</g>
		<g>
			<rect x="101" y="192" fill="#D3D3D3" width="200" height="30"/>
		</g>
		<g>
			<rect x="101" y="132" fill="#D3D3D3" width="240" height="30"/>
		</g>
		<g>
			<rect x="101" y="252" fill="#D3D3D3" width="160" height="30"/>
		</g>
		<g>
			<rect x="101" y="452" fill="#466089" width="100" height="30"/>
		</g>
		<g>
			<polygon fill="#D3D3D3" points="342,10 436,104 342,104 			"/>
		</g>
	</g>
	<g>
		<polygon fill="#6E83B7" points="486,220 428,162 188,402 188,445.857 168.929,464.929 183.071,479.071 202.143,460 246,460 		"/>
		<g>
			
				<rect x="380.908" y="206.988" transform="matrix(0.7071 -0.7071 0.7071 0.7071 -58.2052 355.4802)" fill="#FFE352" width="38.184" height="82.024"/>
		</g>
	</g>
</g>
</svg>
