<svg xmlns="http://www.w3.org/2000/svg" viewBox="0 0 64 64"><g id="_19-Reload" data-name="19-Reload"><path d="M1.03,31A28.981,28.981,0,0,0,30,59,28.38,28.38,0,0,0,55,44v5c-5,9-14,14-25,14A29,29,0,0,1,1,34V31Z" style="fill:#2a84c9"/><path d="M7,30a22.993,22.993,0,0,1,44.6-7.87C47.85,14.43,39.17,10,30,10A23.072,23.072,0,0,0,7.02,30.81C7,30.54,7,30.27,7,30Z" style="fill:#319aeb"/><polygon points="63 27 63 31 55 38 47 31 47 27 55 34 63 27" style="fill:#319aeb"/><path d="M7.02,30.81A22.992,22.992,0,0,0,50.11,41.15L55,44A28.38,28.38,0,0,1,30,59,28.981,28.981,0,0,1,1.03,31c-.02-.33-.03-.66-.03-1a29,29,0,0,1,57.48-5.48L63,20v7l-8,7-8-7V20l5.56,5.56a22.037,22.037,0,0,0-.96-3.43A22.993,22.993,0,0,0,7,30C7,30.27,7,30.54,7.02,30.81Z" style="fill:#48befd"/><path d="M53.567,22a3,3,0,0,1-2.719-1.73A23.1,23.1,0,0,0,30,7a3,3,0,0,1,0-6A29.124,29.124,0,0,1,56.283,17.729,3,3,0,0,1,53.567,22Z" style="fill:#6bdcff"/><path d="M12.26,52a2.991,2.991,0,0,1-2.047-.808,28.98,28.98,0,0,1,0-42.384,3,3,0,1,1,4.1,4.384,22.981,22.981,0,0,0,0,33.616A3,3,0,0,1,12.26,52Z" style="fill:#6bdcff"/><polygon points="55 38 55 34 47 27 47 31 55 38" style="fill:#1c69a1"/><polyline points="47 27 47 31 55 38 63 31 63 27" style="fill:none;stroke:#000;stroke-linejoin:round;stroke-width:2px"/><path d="M46.521,46a22.981,22.981,0,0,0,3.589-4.85L55,44A28.38,28.38,0,0,1,30,59,29,29,0,0,1,1,30q0-1.008.068-2" style="fill:none;stroke:#000;stroke-linejoin:round;stroke-width:2px"/><path d="M43,48.978a23.215,23.215,0,0,0,2-1.542" style="fill:none;stroke:#000;stroke-linejoin:round;stroke-width:2px"/><path d="M2.117,22A29.007,29.007,0,0,1,58.48,24.52L63,20v7l-8,7-8-7V20l5.56,5.56A22.982,22.982,0,1,0,41.368,50" style="fill:none;stroke:#000;stroke-linejoin:round;stroke-width:2px"/><path d="M1.273,26q.14-1.011.348-2" style="fill:none;stroke:#000;stroke-linejoin:round;stroke-width:2px"/><path d="M55,44v5c-5,9-14,14-25,14A29,29,0,0,1,1,34V31" style="fill:none;stroke:#000;stroke-linejoin:round;stroke-width:2px"/><path d="M51.6,22.13C47.85,14.43,39.17,10,30,10A23.072,23.072,0,0,0,7.02,30.81c-.01.06-.01.13-.02.19" style="fill:none;stroke:#000;stroke-linejoin:round;stroke-width:2px"/></g></svg>